<svg width="200" height="39" viewBox="0 0 200 39" fill="none" xmlns="http://www.w3.org/2000/svg">
<path fill-rule="evenodd" clip-rule="evenodd" d="M18.1859 3.51249C12.7347 3.51249 8.3621 7.85433 8.3621 13.1535C8.3621 14.0876 7.60488 14.8448 6.6708 14.8448C5.73671 14.8448 4.97949 14.0876 4.97949 13.1535C4.97949 5.93535 10.9178 0.129883 18.1859 0.129883C25.454 0.129883 31.3923 5.93535 31.3923 13.1535C31.3923 14.0876 30.6351 14.8448 29.701 14.8448C28.7669 14.8448 28.0097 14.0876 28.0097 13.1535C28.0097 7.85433 23.637 3.51249 18.1859 3.51249Z" fill="#99E100"/>
<path d="M31.9766 22.1488L32.5245 17.8352C32.7424 16.1195 32.8514 15.2616 32.3632 14.7075C31.8749 14.1533 31.0102 14.1533 29.2807 14.1533H7.09334C5.36383 14.1533 4.49908 14.1533 4.01087 14.7075C3.52266 15.2616 3.63162 16.1195 3.84954 17.8352L4.39744 22.1488C5.08891 27.5927 5.43464 30.3147 7.28788 31.9474C9.14112 33.5802 11.8849 33.5802 17.3726 33.5802H19.0014C24.4891 33.5802 27.2329 33.5802 29.0861 31.9474C30.9394 30.3147 31.2851 27.5927 31.9766 22.1488V22.1488Z" fill="#101225"/>
<path fill-rule="evenodd" clip-rule="evenodd" d="M7.01485 12.9273C7.04113 12.9273 7.06749 12.9273 7.09393 12.9273L29.3604 12.9273C30.157 12.9272 30.879 12.9271 31.4585 13.0084C32.0916 13.0973 32.765 13.3082 33.2838 13.897C33.8026 14.4858 33.9269 15.1805 33.9353 15.8198C33.943 16.4048 33.8519 17.1211 33.7515 17.9114L33.1828 22.3882C32.8463 25.0383 32.5789 27.1436 32.1548 28.7843C31.7175 30.476 31.0783 31.8271 29.8973 32.8676C28.7163 33.9081 27.2954 34.372 25.5621 34.5926C23.8811 34.8065 21.7588 34.8065 19.0875 34.8065H17.2877C14.6164 34.8065 12.4941 34.8065 10.8131 34.5926C9.07977 34.372 7.65891 33.9081 6.47788 32.8676C5.29686 31.8271 4.65766 30.476 4.22041 28.7843C3.79635 27.1436 3.52895 25.0383 3.19238 22.3882L2.63371 17.9898C2.63038 17.9636 2.62706 17.9374 2.62374 17.9114C2.52328 17.1211 2.43222 16.4048 2.43991 15.8198C2.44831 15.1805 2.57264 14.4858 3.0914 13.897C3.61017 13.3082 4.28359 13.0973 4.91674 13.0084C5.4962 12.9271 6.21823 12.9272 7.01485 12.9273ZM4.93184 15.5185C4.93502 15.5166 4.94096 15.5134 4.95052 15.5092C4.98968 15.492 5.07834 15.4622 5.25768 15.437C5.64591 15.3825 6.19232 15.3796 7.09393 15.3796H29.2813C30.1829 15.3796 30.7293 15.3825 31.1175 15.437C31.2969 15.4622 31.3855 15.492 31.4247 15.5092C31.4342 15.5134 31.4402 15.5166 31.4434 15.5185C31.4448 15.5219 31.4472 15.5281 31.4502 15.5382C31.4624 15.5792 31.4807 15.6709 31.4831 15.852C31.4883 16.244 31.4223 16.7864 31.3087 17.6808L30.7608 21.9944C30.7575 22.0201 30.7542 22.0458 30.751 22.0714C30.4063 24.7848 30.1574 26.7123 29.7804 28.1706C29.4087 29.609 28.9484 30.4353 28.2762 31.0275C27.6039 31.6197 26.7263 31.9722 25.2525 32.1598C23.7442 32.3518 21.7781 32.3541 19.002 32.3541H17.3732C14.5971 32.3541 12.631 32.3518 11.1227 32.1598C9.64894 31.9722 8.77128 31.6197 8.09906 31.0275C7.42684 30.4353 6.96655 29.609 6.59477 28.1706C6.21429 26.6985 5.96425 24.7484 5.61445 21.9944L5.06656 17.6808C4.95295 16.7864 4.88693 16.244 4.89209 15.852C4.89446 15.6709 4.91282 15.5792 4.92502 15.5382C4.928 15.5281 4.9304 15.5219 4.93184 15.5185ZM31.4462 15.5202C31.4462 15.5202 31.4461 15.5202 31.4462 15.5202Z" fill="#101225"/>
<path fill-rule="evenodd" clip-rule="evenodd" d="M0 13.5897C0 12.6557 0.757222 11.8984 1.6913 11.8984H34.5916C35.5257 11.8984 36.2829 12.6557 36.2829 13.5897C36.2829 14.5238 35.5257 15.281 34.5916 15.281H1.6913C0.757222 15.281 0 14.5238 0 13.5897Z" fill="#101225"/>
<path d="M56.2328 14.5298C57.4616 14.5298 58.5539 14.8029 59.5096 15.349C60.4653 15.8756 61.2065 16.6656 61.7331 17.7188C62.2793 18.7526 62.5524 20.0009 62.5524 21.4638V30.9724H58.4563V22.0197C58.4563 20.7323 58.1345 19.7473 57.4908 19.0647C56.8472 18.3625 55.9695 18.0114 54.8577 18.0114C53.7264 18.0114 52.8292 18.3625 52.166 19.0647C51.5223 19.7473 51.2005 20.7323 51.2005 22.0197V30.9724H47.1045V9.32199H51.2005V16.7826C51.7271 16.0804 52.4293 15.5343 53.307 15.1442C54.1848 14.7346 55.16 14.5298 56.2328 14.5298Z" fill="#101225"/>
<path d="M81.749 14.7639V30.9724H77.6238V28.9244C77.0971 29.6266 76.4047 30.1825 75.5465 30.5921C74.7078 30.9822 73.791 31.1772 72.7963 31.1772C71.5285 31.1772 70.4069 30.9139 69.4317 30.3873C68.4565 29.8411 67.686 29.0512 67.1204 28.0174C66.5742 26.9641 66.3012 25.7158 66.3012 24.2725V14.7639H70.3972V23.6873C70.3972 24.9747 70.719 25.9694 71.3627 26.6716C72.0063 27.3542 72.8841 27.6956 73.9958 27.6956C75.1271 27.6956 76.0146 27.3542 76.6583 26.6716C77.3019 25.9694 77.6238 24.9747 77.6238 23.6873V14.7639H81.749Z" fill="#101225"/>
<path d="M92.1393 14.5005C93.3486 14.5005 94.4116 14.7443 95.3283 15.232C96.245 15.7001 96.9667 16.3145 97.4934 17.0752V14.7639H101.619V31.0894C101.619 32.5913 101.316 33.9274 100.712 35.0977C100.107 36.2875 99.2 37.2237 97.9907 37.9064C96.7814 38.6086 95.3186 38.9596 93.6021 38.9596C91.3006 38.9596 89.4086 38.4233 87.9262 37.3505C86.4633 36.2777 85.6344 34.8149 85.4393 32.9619H89.5061C89.7207 33.7031 90.179 34.2882 90.8812 34.7173C91.6029 35.1659 92.4708 35.3903 93.4851 35.3903C94.6749 35.3903 95.6404 35.0294 96.3816 34.3077C97.1228 33.6056 97.4934 32.5328 97.4934 31.0894V28.5733C96.9667 29.334 96.2353 29.9679 95.2991 30.475C94.3823 30.9822 93.3291 31.2357 92.1393 31.2357C90.7739 31.2357 89.5256 30.8846 88.3943 30.1825C87.263 29.4803 86.3658 28.4953 85.7027 27.2275C85.059 25.9401 84.7372 24.4675 84.7372 22.8096C84.7372 21.1712 85.059 19.7181 85.7027 18.4503C86.3658 17.1825 87.2533 16.2072 88.3651 15.5245C89.4964 14.8419 90.7544 14.5005 92.1393 14.5005ZM97.4934 22.8681C97.4934 21.8734 97.2983 21.0249 96.9082 20.3227C96.5181 19.6011 95.9915 19.0549 95.3283 18.6843C94.6651 18.2942 93.9532 18.0992 93.1925 18.0992C92.4318 18.0992 91.7297 18.2845 91.086 18.6551C90.4423 19.0257 89.9157 19.5718 89.5061 20.2935C89.116 20.9957 88.921 21.8344 88.921 22.8096C88.921 23.7849 89.116 24.6431 89.5061 25.3843C89.9157 26.1059 90.4423 26.6618 91.086 27.0519C91.7492 27.442 92.4513 27.6371 93.1925 27.6371C93.9532 27.6371 94.6651 27.4518 95.3283 27.0812C95.9915 26.6911 96.5181 26.1449 96.9082 25.4428C97.2983 24.7211 97.4934 23.8629 97.4934 22.8681Z" fill="#101225"/>
<path d="M120.687 22.517C120.687 23.1022 120.648 23.6288 120.57 24.0969H108.72C108.818 25.2672 109.228 26.184 109.949 26.8471C110.671 27.5103 111.558 27.8419 112.612 27.8419C114.133 27.8419 115.216 27.1885 115.859 25.8816H120.277C119.809 27.442 118.912 28.7293 117.585 29.7436C116.259 30.7383 114.63 31.2357 112.699 31.2357C111.139 31.2357 109.735 30.8944 108.486 30.2117C107.258 29.5095 106.292 28.5245 105.59 27.2567C104.907 25.9889 104.566 24.526 104.566 22.8681C104.566 21.1907 104.907 19.7181 105.59 18.4503C106.273 17.1825 107.228 16.2072 108.457 15.5245C109.686 14.8419 111.1 14.5005 112.699 14.5005C114.24 14.5005 115.615 14.8321 116.825 15.4953C118.053 16.1584 118.999 17.1044 119.663 18.3332C120.345 19.5425 120.687 20.9371 120.687 22.517ZM116.444 21.3467C116.425 20.2935 116.044 19.4548 115.303 18.8306C114.562 18.187 113.655 17.8651 112.582 17.8651C111.568 17.8651 110.71 18.1772 110.008 18.8014C109.325 19.406 108.906 20.2545 108.75 21.3467H116.444Z" fill="#101225"/>
<path d="M125.754 12.8329C125.032 12.8329 124.427 12.6086 123.94 12.1599C123.472 11.6918 123.237 11.1164 123.237 10.4338C123.237 9.7511 123.472 9.18545 123.94 8.73684C124.427 8.26873 125.032 8.03467 125.754 8.03467C126.475 8.03467 127.07 8.26873 127.538 8.73684C128.026 9.18545 128.27 9.7511 128.27 10.4338C128.27 11.1164 128.026 11.6918 127.538 12.1599C127.07 12.6086 126.475 12.8329 125.754 12.8329ZM127.772 14.7639V30.9724H123.676V14.7639H127.772Z" fill="#101225"/>
<path d="M130.766 22.8681C130.766 21.1907 131.107 19.7278 131.79 18.4795C132.473 17.2117 133.419 16.2365 134.628 15.5538C135.837 14.8516 137.222 14.5005 138.783 14.5005C140.792 14.5005 142.449 15.0077 143.756 16.0219C145.083 17.0167 145.97 18.421 146.419 20.235H142.001C141.767 19.5328 141.367 18.9867 140.801 18.5966C140.255 18.187 139.572 17.9822 138.753 17.9822C137.583 17.9822 136.656 18.4113 135.974 19.2695C135.291 20.1082 134.95 21.3077 134.95 22.8681C134.95 24.409 135.291 25.6086 135.974 26.4668C136.656 27.3055 137.583 27.7248 138.753 27.7248C140.411 27.7248 141.494 26.9837 142.001 25.5013H146.419C145.97 27.2567 145.083 28.6513 143.756 29.6851C142.43 30.7188 140.772 31.2357 138.783 31.2357C137.222 31.2357 135.837 30.8944 134.628 30.2117C133.419 29.5095 132.473 28.5343 131.79 27.286C131.107 26.0182 130.766 24.5455 130.766 22.8681Z" fill="#101225"/>
<path d="M156.617 31.2357C155.056 31.2357 153.652 30.8944 152.404 30.2117C151.155 29.5095 150.17 28.5245 149.449 27.2567C148.746 25.9889 148.395 24.526 148.395 22.8681C148.395 21.2102 148.756 19.7473 149.478 18.4795C150.219 17.2117 151.224 16.2365 152.491 15.5538C153.759 14.8516 155.173 14.5005 156.734 14.5005C158.294 14.5005 159.708 14.8516 160.976 15.5538C162.244 16.2365 163.239 17.2117 163.96 18.4795C164.701 19.7473 165.072 21.2102 165.072 22.8681C165.072 24.526 164.692 25.9889 163.931 27.2567C163.19 28.5245 162.176 29.5095 160.888 30.2117C159.62 30.8944 158.197 31.2357 156.617 31.2357ZM156.617 27.6663C157.358 27.6663 158.05 27.4908 158.694 27.1397C159.357 26.7691 159.884 26.223 160.274 25.5013C160.664 24.7796 160.859 23.9019 160.859 22.8681C160.859 21.3272 160.449 20.1472 159.63 19.328C158.83 18.4893 157.845 18.0699 156.675 18.0699C155.505 18.0699 154.52 18.4893 153.72 19.328C152.94 20.1472 152.55 21.3272 152.55 22.8681C152.55 24.409 152.93 25.5988 153.691 26.4375C154.471 27.2567 155.446 27.6663 156.617 27.6663Z" fill="#101225"/>
<path d="M177.059 14.5298C178.99 14.5298 180.55 15.1442 181.74 16.373C182.93 17.5823 183.524 19.2792 183.524 21.4638V30.9724H179.428V22.0197C179.428 20.7323 179.107 19.7473 178.463 19.0647C177.819 18.3625 176.942 18.0114 175.83 18.0114C174.699 18.0114 173.801 18.3625 173.138 19.0647C172.494 19.7473 172.173 20.7323 172.173 22.0197V30.9724H168.077V14.7639H172.173V16.7826C172.719 16.0804 173.411 15.5343 174.25 15.1442C175.108 14.7346 176.044 14.5298 177.059 14.5298Z" fill="#101225"/>
<path d="M193.622 31.2357C192.296 31.2357 191.106 31.0017 190.053 30.5335C188.999 30.0459 188.161 29.3925 187.537 28.5733C186.932 27.7541 186.6 26.8471 186.542 25.8524H190.667C190.745 26.4765 191.047 26.9934 191.574 27.403C192.12 27.8126 192.793 28.0174 193.593 28.0174C194.373 28.0174 194.978 27.8614 195.407 27.5493C195.855 27.2372 196.08 26.8374 196.08 26.3497C196.08 25.8231 195.807 25.433 195.261 25.1795C194.734 24.9064 193.885 24.6138 192.715 24.3017C191.506 24.0092 190.511 23.7068 189.731 23.3948C188.97 23.0827 188.307 22.6048 187.741 21.9611C187.195 21.3175 186.922 20.4495 186.922 19.3572C186.922 18.46 187.176 17.6408 187.683 16.8996C188.21 16.1584 188.951 15.5733 189.906 15.1442C190.882 14.7151 192.023 14.5005 193.33 14.5005C195.261 14.5005 196.801 14.9882 197.952 15.9634C199.103 16.9191 199.737 18.2162 199.854 19.8546H195.933C195.875 19.211 195.602 18.7038 195.114 18.3332C194.646 17.9431 194.012 17.7481 193.213 17.7481C192.471 17.7481 191.896 17.8846 191.486 18.1577C191.096 18.4308 190.901 18.8111 190.901 19.2987C190.901 19.8449 191.174 20.2642 191.72 20.5568C192.267 20.8299 193.115 21.1127 194.266 21.4053C195.436 21.6978 196.402 22.0002 197.162 22.3122C197.923 22.6243 198.576 23.1119 199.123 23.7751C199.688 24.4188 199.981 25.277 200 26.3497C200 27.286 199.737 28.1247 199.21 28.8659C198.703 29.6071 197.962 30.1922 196.987 30.6213C196.031 31.0309 194.909 31.2357 193.622 31.2357Z" fill="#101225"/>
</svg>
